<svg xmlns="http://www.w3.org/2000/svg" width="512" height="512" viewBox="0 0 23 23" shape-rendering="crispEdges">
<defs><clipPath id="circleClip"><circle cx="11.5" cy="11.5" r="11.5"></circle></clipPath></defs>
<circle cx="11.5" cy="11.5" r="11.5" fill="#0e0b29"></circle>
<g clip-path="url(#circleClip)" fill="#a9a4ff"><g opacity="0.45"><rect x="3.800" y="4.000" width="0.250" height="0.250"></rect><rect x="4.280" y="4.000" width="0.250" height="0.250"></rect><rect x="4.760" y="4.000" width="0.250" height="0.250"></rect><rect x="4.280" y="4.240" width="0.250" height="0.250"></rect><rect x="3.800" y="4.480" width="0.250" height="0.250"></rect><rect x="4.040" y="4.480" width="0.250" height="0.250"></rect><rect x="4.280" y="4.480" width="0.250" height="0.250"></rect><rect x="4.520" y="4.480" width="0.250" height="0.250"></rect><rect x="4.760" y="4.480" width="0.250" height="0.250"></rect><rect x="4.280" y="4.720" width="0.250" height="0.250"></rect><rect x="3.800" y="4.960" width="0.250" height="0.250"></rect><rect x="4.280" y="4.960" width="0.250" height="0.250"></rect><rect x="4.760" y="4.960" width="0.250" height="0.250"></rect></g><g opacity="0.36"><rect x="17.850" y="13.650" width="0.230" height="0.230"></rect><rect x="18.290" y="13.650" width="0.230" height="0.230"></rect><rect x="18.730" y="13.650" width="0.230" height="0.230"></rect><rect x="18.290" y="13.870" width="0.230" height="0.230"></rect><rect x="17.850" y="14.090" width="0.230" height="0.230"></rect><rect x="18.070" y="14.090" width="0.230" height="0.230"></rect><rect x="18.290" y="14.090" width="0.230" height="0.230"></rect><rect x="18.510" y="14.090" width="0.230" height="0.230"></rect><rect x="18.730" y="14.090" width="0.230" height="0.230"></rect><rect x="18.290" y="14.310" width="0.230" height="0.230"></rect><rect x="17.850" y="14.530" width="0.230" height="0.230"></rect><rect x="18.290" y="14.530" width="0.230" height="0.230"></rect><rect x="18.730" y="14.530" width="0.230" height="0.230"></rect></g><g opacity="0.4"><rect x="17.850" y="6.510" width="0.900" height="0.180"></rect><rect x="18.210" y="6.150" width="0.180" height="0.900"></rect></g><g opacity="0.32"><rect x="2.700" y="13.520" width="0.800" height="0.160"></rect><rect x="3.020" y="13.200" width="0.160" height="0.800"></rect></g><rect x="6.100" y="18.700" width="0.32" height="0.32" opacity="0.4"></rect></g>
<g transform="translate(5,3)"><rect x="6" y="0" width="1.02" height="1.02" fill="#ffffff"></rect><rect x="5" y="1" width="1.02" height="1.02" fill="#cfd3f2"></rect><rect x="6" y="1" width="1.02" height="1.02" fill="#ffffff"></rect><rect x="7" y="1" width="1.02" height="1.02" fill="#cfd3f2"></rect><rect x="5" y="2" width="1.02" height="1.02" fill="#cfd3f2"></rect><rect x="6" y="2" width="1.02" height="1.02" fill="#eef1f8"></rect><rect x="7" y="2" width="1.02" height="1.02" fill="#cfd3f2"></rect><rect x="4" y="3" width="1.02" height="1.02" fill="#cfd3f2"></rect><rect x="5" y="3" width="1.02" height="1.02" fill="#eef1f8"></rect><rect x="7" y="3" width="1.02" height="1.02" fill="#eef1f8"></rect><rect x="8" y="3" width="1.02" height="1.02" fill="#cfd3f2"></rect><rect x="4" y="4" width="1.02" height="1.02" fill="#cfd3f2"></rect><rect x="5" y="4" width="1.02" height="1.02" fill="#eef1f8"></rect><rect x="6" y="4" width="1.02" height="1.02" fill="#eef1f8"></rect><rect x="7" y="4" width="1.02" height="1.02" fill="#eef1f8"></rect><rect x="8" y="4" width="1.02" height="1.02" fill="#cfd3f2"></rect><rect x="3" y="5" width="1.02" height="1.02" fill="#cfd3f2"></rect><rect x="4" y="5" width="1.02" height="1.02" fill="#eef1f8"></rect><rect x="5" y="5" width="1.02" height="1.02" fill="#eef1f8"></rect><rect x="6" y="5" width="1.02" height="1.02" fill="#ffffff"></rect><rect x="7" y="5" width="1.02" height="1.02" fill="#eef1f8"></rect><rect x="8" y="5" width="1.02" height="1.02" fill="#eef1f8"></rect><rect x="9" y="5" width="1.02" height="1.02" fill="#cfd3f2"></rect><rect x="3" y="6" width="1.02" height="1.02" fill="#cfd3f2"></rect><rect x="4" y="6" width="1.02" height="1.02" fill="#eef1f8"></rect><rect x="5" y="6" width="1.02" height="1.02" fill="#eef1f8"></rect><rect x="6" y="6" width="1.02" height="1.02" fill="#ffffff"></rect><rect x="7" y="6" width="1.02" height="1.02" fill="#eef1f8"></rect><rect x="8" y="6" width="1.02" height="1.02" fill="#eef1f8"></rect><rect x="9" y="6" width="1.02" height="1.02" fill="#cfd3f2"></rect><rect x="2" y="7" width="1.02" height="1.02" fill="#cfd3f2"></rect><rect x="3" y="7" width="1.02" height="1.02" fill="#eef1f8"></rect><rect x="4" y="7" width="1.02" height="1.02" fill="#eef1f8"></rect><rect x="5" y="7" width="1.02" height="1.02" fill="#eef1f8"></rect><rect x="6" y="7" width="1.02" height="1.02" fill="#ffffff"></rect><rect x="7" y="7" width="1.02" height="1.02" fill="#eef1f8"></rect><rect x="8" y="7" width="1.02" height="1.02" fill="#eef1f8"></rect><rect x="9" y="7" width="1.02" height="1.02" fill="#eef1f8"></rect><rect x="10" y="7" width="1.02" height="1.02" fill="#cfd3f2"></rect><rect x="1" y="8" width="1.02" height="1.02" fill="#cfd3f2"></rect><rect x="2" y="8" width="1.02" height="1.02" fill="#eef1f8"></rect><rect x="3" y="8" width="1.02" height="1.02" fill="#eef1f8"></rect><rect x="4" y="8" width="1.02" height="1.02" fill="#eef1f8"></rect><rect x="5" y="8" width="1.02" height="1.02" fill="#eef1f8"></rect><rect x="6" y="8" width="1.02" height="1.02" fill="#ffffff"></rect><rect x="7" y="8" width="1.02" height="1.02" fill="#eef1f8"></rect><rect x="8" y="8" width="1.02" height="1.02" fill="#eef1f8"></rect><rect x="9" y="8" width="1.02" height="1.02" fill="#eef1f8"></rect><rect x="10" y="8" width="1.02" height="1.02" fill="#eef1f8"></rect><rect x="11" y="8" width="1.02" height="1.02" fill="#cfd3f2"></rect><rect x="1" y="9" width="1.02" height="1.02" fill="#cfd3f2"></rect><rect x="2" y="9" width="1.02" height="1.02" fill="#eef1f8"></rect><rect x="3" y="9" width="1.02" height="1.02" fill="#eef1f8"></rect><rect x="4" y="9" width="1.02" height="1.02" fill="#eef1f8"></rect><rect x="5" y="9" width="1.02" height="1.02" fill="#eef1f8"></rect><rect x="6" y="9" width="1.02" height="1.02" fill="#ffffff"></rect><rect x="7" y="9" width="1.02" height="1.02" fill="#eef1f8"></rect><rect x="8" y="9" width="1.02" height="1.02" fill="#eef1f8"></rect><rect x="9" y="9" width="1.02" height="1.02" fill="#eef1f8"></rect><rect x="10" y="9" width="1.02" height="1.02" fill="#eef1f8"></rect><rect x="11" y="9" width="1.02" height="1.02" fill="#cfd3f2"></rect><rect x="0" y="10" width="1.02" height="1.02" fill="#cfd3f2"></rect><rect x="1" y="10" width="1.02" height="1.02" fill="#eef1f8"></rect><rect x="2" y="10" width="1.02" height="1.02" fill="#eef1f8"></rect><rect x="3" y="10" width="1.02" height="1.02" fill="#eef1f8"></rect><rect x="4" y="10" width="1.02" height="1.02" fill="#eef1f8"></rect><rect x="5" y="10" width="1.02" height="1.02" fill="#eef1f8"></rect><rect x="6" y="10" width="1.02" height="1.02" fill="#ffffff"></rect><rect x="7" y="10" width="1.02" height="1.02" fill="#eef1f8"></rect><rect x="8" y="10" width="1.02" height="1.02" fill="#eef1f8"></rect><rect x="9" y="10" width="1.02" height="1.02" fill="#eef1f8"></rect><rect x="10" y="10" width="1.02" height="1.02" fill="#eef1f8"></rect><rect x="11" y="10" width="1.02" height="1.02" fill="#eef1f8"></rect><rect x="12" y="10" width="1.02" height="1.02" fill="#cfd3f2"></rect><rect x="0" y="11" width="1.02" height="1.02" fill="#cfd3f2"></rect><rect x="1" y="11" width="1.02" height="1.02" fill="#eef1f8"></rect><rect x="2" y="11" width="1.02" height="1.02" fill="#eef1f8"></rect><rect x="3" y="11" width="1.02" height="1.02" fill="#eef1f8"></rect><rect x="4" y="11" width="1.02" height="1.02" fill="#eef1f8"></rect><rect x="8" y="11" width="1.02" height="1.02" fill="#eef1f8"></rect><rect x="9" y="11" width="1.02" height="1.02" fill="#eef1f8"></rect><rect x="10" y="11" width="1.02" height="1.02" fill="#eef1f8"></rect><rect x="11" y="11" width="1.02" height="1.02" fill="#eef1f8"></rect><rect x="12" y="11" width="1.02" height="1.02" fill="#cfd3f2"></rect><rect x="0" y="12" width="1.02" height="1.02" fill="#a9a4ff"></rect><rect x="1" y="12" width="1.02" height="1.02" fill="#a9a4ff"></rect><rect x="3" y="12" width="1.02" height="1.02" fill="#eef1f8"></rect><rect x="4" y="12" width="1.02" height="1.02" fill="#eef1f8"></rect><rect x="8" y="12" width="1.02" height="1.02" fill="#eef1f8"></rect><rect x="9" y="12" width="1.02" height="1.02" fill="#eef1f8"></rect><rect x="11" y="12" width="1.02" height="1.02" fill="#a9a4ff"></rect><rect x="12" y="12" width="1.02" height="1.02" fill="#a9a4ff"></rect><rect x="5" y="13" width="1.02" height="1.02" fill="#a9a4ff"></rect><rect x="6" y="13" width="1.02" height="1.02" fill="#d6d3ff"></rect><rect x="7" y="13" width="1.02" height="1.02" fill="#a9a4ff"></rect><rect x="2" y="14" width="1.02" height="1.02" fill="#a9a4ff"></rect><rect x="5" y="14" width="1.02" height="1.02" fill="#a9a4ff"></rect><rect x="6" y="14" width="1.02" height="1.02" fill="#d6d3ff"></rect><rect x="7" y="14" width="1.02" height="1.02" fill="#a9a4ff"></rect><rect x="10" y="14" width="1.02" height="1.02" fill="#a9a4ff"></rect><rect x="5" y="15" width="1.02" height="1.02" fill="#a9a4ff"></rect><rect x="6" y="15" width="1.02" height="1.02" fill="#d6d3ff"></rect><rect x="7" y="15" width="1.02" height="1.02" fill="#a9a4ff"></rect><rect x="6" y="16" width="1.02" height="1.02" fill="#a9a4ff"></rect></g>
</svg>
